<svg width="201" height="201" viewBox="0 0 201 201" fill="none" xmlns="http://www.w3.org/2000/svg">
<mask id="mask0_70_33" style="mask-type:alpha" maskUnits="userSpaceOnUse" x="0" y="0" width="201" height="201">
<rect x="0.200195" y="0.549805" width="200" height="200" fill="#D9D9D9"/>
</mask>
<g mask="url(#mask0_70_33)">
<path d="M64.7509 90.7899C66.7916 90.7899 68.5304 90.0714 69.9674 88.6343C71.4043 87.1974 72.1228 85.4586 72.1228 83.4181C72.1228 81.3775 71.4043 79.6388 69.9674 78.2018C68.5304 76.7649 66.7916 76.0464 64.7509 76.0464C62.657 76.0464 60.9049 76.7649 59.4947 78.2018C58.0844 79.6388 57.3792 81.3775 57.3792 83.4181C57.3792 85.4586 58.0844 87.1974 59.4947 88.6343C60.9049 90.0714 62.657 90.7899 64.7509 90.7899ZM100.664 90.7899C102.705 90.7899 104.444 90.0714 105.881 88.6343C107.318 87.1974 108.036 85.4586 108.036 83.4181C108.036 81.3775 107.318 79.6388 105.881 78.2018C104.444 76.7649 102.705 76.0464 100.664 76.0464C98.6239 76.0464 96.8851 76.7649 95.4482 78.2018C94.0111 79.6388 93.2926 81.3775 93.2926 83.4181C93.2926 85.4586 94.0111 87.1974 95.4482 88.6343C96.8851 90.0714 98.6239 90.7899 100.664 90.7899ZM135.52 90.7899C137.561 90.7899 139.299 90.0714 140.736 88.6343C142.173 87.1974 142.892 85.4586 142.892 83.4181C142.892 81.3775 142.173 79.6388 140.736 78.2018C139.299 76.7649 137.561 76.0464 135.52 76.0464C133.48 76.0464 131.741 76.7649 130.304 78.2018C128.867 79.6388 128.148 81.3775 128.148 83.4181C128.148 85.4586 128.867 87.1974 130.304 88.6343C131.741 90.0714 133.48 90.7899 135.52 90.7899ZM21.0332 175.87V33.4024C21.0332 30.1345 22.2195 27.3143 24.592 24.9418C26.9645 22.5693 29.7847 21.3831 33.0526 21.3831H167.347C170.615 21.3831 173.435 22.5693 175.807 24.9418C178.18 27.3143 179.366 30.1345 179.366 33.4024V134.363C179.366 137.631 178.18 140.451 175.807 142.824C173.435 145.196 170.615 146.383 167.347 146.383H50.5203L21.0332 175.87ZM46.3857 136.928H167.347C167.988 136.928 168.576 136.661 169.11 136.126C169.644 135.592 169.911 135.004 169.911 134.363V33.4024C169.911 32.7613 169.644 32.1736 169.11 31.6393C168.576 31.1051 167.988 30.8381 167.347 30.8381H33.0526C32.4115 30.8381 31.8238 31.1051 31.2895 31.6393C30.7553 32.1736 30.4882 32.7613 30.4882 33.4024V153.755L46.3857 136.928Z" fill="#1C1B1F"/>
</g>
</svg>
